<?xml version="1.0" encoding="UTF-8"?>
<svg width="159px" height="127px" viewBox="0 0 159 127" version="1.1" xmlns="http://www.w3.org/2000/svg" xmlns:xlink="http://www.w3.org/1999/xlink">
    <title>easy private</title>
    <defs>
        <linearGradient x1="52.4023856%" y1="35.4746028%" x2="50%" y2="63.372663%" id="linearGradient-1">
            <stop stop-color="#FFFFFF" offset="0%"></stop>
            <stop stop-color="#8FCCDF" offset="33.9101374%"></stop>
            <stop stop-color="#74C0D7" offset="100%"></stop>
        </linearGradient>
        <linearGradient x1="52.4023856%" y1="15.8482961%" x2="48.4000971%" y2="72.6444528%" id="linearGradient-2">
            <stop stop-color="#FFFFFF" offset="0%"></stop>
            <stop stop-color="#74C0D7" offset="100%"></stop>
        </linearGradient>
        <linearGradient x1="52.4023856%" y1="15.9153696%" x2="48.4000971%" y2="72.5999794%" id="linearGradient-3">
            <stop stop-color="#FFFFFF" offset="0%"></stop>
            <stop stop-color="#74C0D7" offset="100%"></stop>
        </linearGradient>
        <linearGradient x1="52.4023856%" y1="15.7856177%" x2="48.4000971%" y2="72.686012%" id="linearGradient-4">
            <stop stop-color="#FFFFFF" offset="0%"></stop>
            <stop stop-color="#74C0D7" offset="100%"></stop>
        </linearGradient>
        <linearGradient x1="-61.8392819%" y1="43.2234183%" x2="418.397427%" y2="28.375138%" id="linearGradient-5">
            <stop stop-color="#FFFFFF" offset="0%"></stop>
            <stop stop-color="#75C1D7" offset="100%"></stop>
            <stop stop-color="#74C0D7" offset="100%"></stop>
        </linearGradient>
        <linearGradient x1="10.7458762%" y1="99.8446091%" x2="94.7406168%" y2="-6.8132919%" id="linearGradient-6">
            <stop stop-color="#0A2834" offset="0%"></stop>
            <stop stop-color="#0A707C" offset="100%"></stop>
        </linearGradient>
        <linearGradient x1="0%" y1="49.9386503%" x2="100.050352%" y2="49.9386503%" id="linearGradient-7">
            <stop stop-color="#4CB32B" offset="0%"></stop>
            <stop stop-color="#A0E674" offset="100%"></stop>
        </linearGradient>
        <linearGradient x1="16.2947747%" y1="78.1561198%" x2="54.5521601%" y2="43.2100691%" id="linearGradient-8">
            <stop stop-color="#4CB32B" offset="0%"></stop>
            <stop stop-color="#A0E674" offset="100%"></stop>
        </linearGradient>
        <linearGradient x1="0%" y1="50.033761%" x2="100%" y2="50.033761%" id="linearGradient-9">
            <stop stop-color="#4CB32B" offset="0%"></stop>
            <stop stop-color="#A0E674" offset="100%"></stop>
        </linearGradient>
        <linearGradient x1="52.0074715%" y1="26.605256%" x2="44.1011222%" y2="149.417502%" id="linearGradient-10">
            <stop stop-color="#4CB32B" offset="0%"></stop>
            <stop stop-color="#A0E674" offset="100%"></stop>
        </linearGradient>
        <linearGradient x1="35.5156276%" y1="-17.5150766%" x2="57.3343123%" y2="95.6845192%" id="linearGradient-11">
            <stop stop-color="#0A2834" offset="0%"></stop>
            <stop stop-color="#0A707C" offset="100%"></stop>
        </linearGradient>
        <linearGradient x1="43.9842017%" y1="17.9712097%" x2="68.932071%" y2="143.098202%" id="linearGradient-12">
            <stop stop-color="#FFFFFF" offset="0%"></stop>
            <stop stop-color="#74C0D7" offset="100%"></stop>
        </linearGradient>
        <linearGradient x1="49.9165985%" y1="-47.5614865%" x2="52.6375733%" y2="222.019161%" id="linearGradient-13">
            <stop stop-color="#0A2834" offset="0%"></stop>
            <stop stop-color="#0A707C" offset="100%"></stop>
        </linearGradient>
        <linearGradient x1="47.2566372%" y1="-48.3185841%" x2="55.0442478%" y2="232.566372%" id="linearGradient-14">
            <stop stop-color="#4CB32B" offset="0%"></stop>
            <stop stop-color="#A0E674" offset="100%"></stop>
        </linearGradient>
        <linearGradient x1="47.2027972%" y1="-48.2517483%" x2="55.0699301%" y2="232.342657%" id="linearGradient-15">
            <stop stop-color="#4CB32B" offset="0%"></stop>
            <stop stop-color="#A0E674" offset="100%"></stop>
        </linearGradient>
        <linearGradient x1="47.3451327%" y1="-48.3185841%" x2="55.0442478%" y2="232.477876%" id="linearGradient-16">
            <stop stop-color="#4CB32B" offset="0%"></stop>
            <stop stop-color="#A0E674" offset="100%"></stop>
        </linearGradient>
        <linearGradient x1="47.3776224%" y1="-48.2517483%" x2="55.0699301%" y2="232.342657%" id="linearGradient-17">
            <stop stop-color="#4CB32B" offset="0%"></stop>
            <stop stop-color="#A0E674" offset="100%"></stop>
        </linearGradient>
        <linearGradient x1="47.2566372%" y1="-48.2300885%" x2="55.0442478%" y2="232.566372%" id="linearGradient-18">
            <stop stop-color="#4CB32B" offset="0%"></stop>
            <stop stop-color="#A0E674" offset="100%"></stop>
        </linearGradient>
        <linearGradient x1="47.2027972%" y1="-48.0769231%" x2="55.0699301%" y2="232.342657%" id="linearGradient-19">
            <stop stop-color="#4CB32B" offset="0%"></stop>
            <stop stop-color="#A0E674" offset="100%"></stop>
        </linearGradient>
        <linearGradient x1="47.2027972%" y1="-48.0769231%" x2="54.8951049%" y2="232.517483%" id="linearGradient-20">
            <stop stop-color="#4CB32B" offset="0%"></stop>
            <stop stop-color="#A0E674" offset="100%"></stop>
        </linearGradient>
    </defs>
    <g id="Landing-Pages" stroke="none" stroke-width="1" fill="none" fill-rule="evenodd">
        <g id="Zeet.co" transform="translate(-182.000000, -5582.000000)">
            <g id="our-advance-feature" transform="translate(142.000000, 4767.000000)">
                <g id="easy-private" transform="translate(0.000000, 775.000000)">
                    <g id="easy-private" transform="translate(40.000000, 40.000000)">
                        <g id="Asset-1" transform="translate(0.000000, 35.000000)" fill-rule="nonzero">
                            <g id="Group" opacity="0.22" transform="translate(15.300001, 0.000000)" fill="url(#linearGradient-1)">
                                <path d="M126.774005,35.6490014 C128.061005,36.3870014 128.061005,37.6020015 126.774005,38.3490015 L66.4740026,73.3770029 C65.0114882,74.1179243 63.2835169,74.1179243 61.8210025,73.3770029 L1.17900005,38.3490015 C-0.108000004,37.6110015 -0.108000004,36.3960014 1.17900005,35.6490014 L61.4790024,0.621000025 C62.9415169,-0.119921367 64.6694881,-0.119921367 66.1320026,0.621000025 L126.774005,35.6490014 Z" id="Path"></path>
                            </g>
                            <g id="Group" opacity="0.22" transform="translate(54.900002, 60.300002)" fill="url(#linearGradient-2)">
                                <path d="M53.5140021,14.8680006 C53.7550068,14.9497776 53.9171364,15.1759997 53.9171364,15.4305006 C53.9171364,15.6850015 53.7550068,15.9112237 53.5140021,15.9930006 L28.3590011,30.6000012 C27.7479625,30.9095236 27.0260396,30.9095236 26.415001,30.6000012 L1.08900004,15.9930006 C0.847995405,15.9112237 0.685865818,15.6850015 0.685865818,15.4305006 C0.685865818,15.1759997 0.847995405,14.9497776 1.08900004,14.8680006 L26.289001,0.24300001 C26.9000396,-0.0665223303 27.6219625,-0.0665223303 28.2330011,0.24300001 L53.5140021,14.8680006 Z" id="Path"></path>
                            </g>
                            <g id="Group" opacity="0.22" transform="translate(0.000000, 11.700000)" fill="url(#linearGradient-3)">
                                <path d="M27.7830011,8.55900034 C27.9088804,8.60348495 27.993044,8.72249202 27.993044,8.85600035 C27.993044,8.98950869 27.9088804,9.10851575 27.7830011,9.15300036 L14.5530006,16.8480007 C14.2330059,17.0085348 13.8559952,17.0085348 13.5360005,16.8480007 L0.216000009,9.15300036 C0.0901207218,9.10851575 0.00595713434,8.98950869 0.00595713434,8.85600035 C0.00595713434,8.72249202 0.0901207218,8.60348495 0.216000009,8.55900034 L13.4460005,0.900000036 C13.7659952,0.7394659 14.1430059,0.7394659 14.4630006,0.900000036 L27.7830011,8.55900034 Z" id="Path"></path>
                            </g>
                            <g id="Group" opacity="0.22" transform="translate(129.600005, 15.300001)" fill="url(#linearGradient-4)">
                                <path d="M28.2510011,8.10000032 C28.3768804,8.14448493 28.461044,8.263492 28.461044,8.39700033 C28.461044,8.53050867 28.3768804,8.64951574 28.2510011,8.69400035 L15.0120006,16.3890007 C14.6920059,16.5495348 14.3149953,16.5495348 13.9950006,16.3890007 L0.675000027,8.69400035 C0.54912074,8.64951574 0.464957153,8.53050867 0.464957153,8.39700033 C0.464957153,8.263492 0.54912074,8.14448493 0.675000027,8.10000032 L13.9140006,0.405000016 C14.2339953,0.244465881 14.6110059,0.244465881 14.9310006,0.405000016 L28.2510011,8.10000032 Z" id="Path"></path>
                            </g>
                            <path d="M142.353006,40.3110016 L140.553006,39.2580016 L81.8100033,73.3770029 C80.3474888,74.1179243 78.6195176,74.1179243 77.1570031,73.3770029 L18.3150007,39.4020016 L16.7490007,40.3020016 C15.4710006,41.0400016 15.4800006,42.2550017 16.7490007,43.0020017 L77.4000031,78.0390031 C78.8625176,78.7799245 80.5904888,78.7799245 82.0530033,78.0390031 L142.353006,43.0110017 C143.640006,42.3000017 143.631006,41.0490016 142.353006,40.3110016 Z" id="Path" fill="url(#linearGradient-5)"></path>
                        </g>
                        <g id="icon7" transform="translate(30.000000, 0.000000)">
                            <g id="Group" transform="translate(8.000000, 1.000000)">
                                <circle id="Oval" fill="url(#linearGradient-6)" fill-rule="nonzero" cx="42.17" cy="42" r="41.83"></circle>
                                <ellipse id="Oval" stroke="#FFFFFF" cx="42.17" cy="42" rx="26.92" ry="41.83"></ellipse>
                                <path d="M0.35,42 C0.35,50.1 4.5,58.21 12.67,64.4 C29,76.8 55.52,76.83 71.81,64.46 C80,58.27 84,50.13 84,42" id="Path" stroke="#FFFFFF" stroke-linecap="round" stroke-linejoin="round"></path>
                                <path d="M2.25,29.4 C2.25,34.61 6.25,39.83 14.01,43.82 C29.64,51.82 54.92,51.82 70.47,43.82 C78.26,39.82 82.13,34.59 82.0903069,29.36" id="Path" stroke="#FFFFFF" stroke-linecap="round" stroke-linejoin="round"></path>
                                <line x1="42.17" y1="0.17" x2="42.17" y2="83.83" id="Path" stroke="#FFFFFF" stroke-linecap="round" stroke-linejoin="round"></line>
                            </g>
                            <g id="Group" transform="translate(0.000000, 20.000000)">
                                <polygon id="Path" fill="url(#linearGradient-7)" fill-rule="nonzero" points="0.12 3.1 4.02 0.84 19.98 6.72 16.09 8.99"></polygon>
                                <path d="M16.09,9 L32,21.53 L32,48.06 C32,53.75 29.09,57.27 24.59,57.06 L16,56.68 L7.41,47.14 C2.93,42.14 0.07,35.32 0.0898957805,29.63 L0.12,3.1 L16.09,9 Z" id="Path" fill="url(#linearGradient-8)" fill-rule="nonzero"></path>
                                <polygon id="Path" fill="url(#linearGradient-9)" fill-rule="nonzero" points="16.09 8.99 19.98 6.72 35.94 19.27 32.04 21.53"></polygon>
                                <path d="M32,21.53 L32,48.06 C32,51.98 30.61,54.87 28.29,56.22 L32.15,54 C34.48,52.65 35.85,49.76 35.86,45.84 L35.94,19.31 L32,21.53 Z" id="Path" fill="url(#linearGradient-10)" fill-rule="nonzero"></path>
                                <g transform="translate(8.000000, 19.000000)" id="Path">
                                    <path d="M11.09,13.28 L3.24,8.74 L3.24,3.81 C3.24,1.13 4.87,-0.1 6.88,1.06 L7.45,1.39 C9.45,2.55 11.09,5.67 11.09,8.39 L11.09,13.28 Z" stroke="url(#linearGradient-11)"></path>
                                    <path d="M12.71,25.41 L1.63,19 C0.742988202,18.3664054 0.208765877,17.349899 0.19,16.26 L0.19,5.1 C0.19,4.05 0.84,3.56 1.63,4.02 L12.71,10.42 C13.5944682,11.0546573 14.1251511,12.0714903 14.14,13.16 L14.14,24.32 C14.14,25.38 13.5,25.86 12.71,25.41 Z" fill="url(#linearGradient-12)" fill-rule="nonzero"></path>
                                    <path d="M9,15.13 C8.9232643,13.8310389 8.23739641,12.6446728 7.15,11.93 C6.15,11.34 5.29,11.82 5.29,12.99 C5.34024961,13.9256489 5.71101676,14.8154901 6.34,15.51 L6.34,17.74 C6.36992463,18.3042295 6.67195407,18.8187982 7.15,19.12 C7.59,19.38 7.95,19.12 7.95,18.66 L7.95,16.43 C8.59,16.45 9,16 9,15.13 Z" fill="url(#linearGradient-13)" fill-rule="nonzero"></path>
                                </g>
                            </g>
                            <g id="Group" transform="translate(63.000000, 8.000000)" fill-rule="nonzero">
                                <circle id="Oval" fill="url(#linearGradient-14)" opacity="0.3" cx="6.02" cy="6.49" r="5.65"></circle>
                                <circle id="Oval" fill="url(#linearGradient-15)" cx="6.02" cy="6.49" r="2.86"></circle>
                            </g>
                            <g id="Group" transform="translate(25.000000, 0.000000)" fill-rule="nonzero">
                                <circle id="Oval" fill="url(#linearGradient-16)" opacity="0.3" cx="6.11" cy="6.34" r="5.65"></circle>
                                <circle id="Oval" fill="url(#linearGradient-17)" cx="6.11" cy="6.34" r="2.86"></circle>
                            </g>
                            <g id="Group" transform="translate(44.000000, 56.000000)" fill-rule="nonzero">
                                <circle id="Oval" fill="url(#linearGradient-18)" opacity="0.3" cx="6.17" cy="5.79" r="5.65"></circle>
                                <circle id="Oval" fill="url(#linearGradient-19)" cx="6.17" cy="5.79" r="2.86"></circle>
                            </g>
                            <g id="Group" transform="translate(74.000000, 66.000000)" fill-rule="nonzero">
                                <circle id="Oval" fill="url(#linearGradient-18)" opacity="0.3" cx="6.38" cy="5.86" r="5.65"></circle>
                                <circle id="Oval" fill="url(#linearGradient-20)" cx="6.38" cy="5.86" r="2.86"></circle>
                            </g>
                        </g>
                    </g>
                </g>
            </g>
        </g>
    </g>
</svg>